/* XPM */
static char *north[] = {
/* columns rows colors chars-per-pixel */
"64 64 176 2 ",
"   c #003700",
".  c #003D00",
"X  c #2E3F36",
"o  c #5F0000",
"O  c #640000",
"+  c #6C0000",
"@  c #740000",
"#  c #7C0000",
"$  c #7D1500",
"%  c #472708",
"&  c #462D0A",
"*  c #4D2C0A",
"=  c #532E0B",
"-  c #592F0C",
";  c #47310C",
":  c #49340D",
">  c #493A0E",
",  c #56310C",
"<  c #5D390E",
"1  c #60370D",
"2  c #60390E",
"3  c #4F3221",
"4  c #483D2D",
"5  c #533422",
"6  c #543925",
"7  c #5B3A25",
"8  c #553D2A",
"9  c #5B3D2A",
"0  c #613B26",
"q  c #633E29",
"w  c #004400",
"e  c #004C00",
"r  c #005300",
"t  c #005B00",
"y  c #006300",
"u  c #006B00",
"i  c #007300",
"p  c #007B00",
"a  c #2E4137",
"s  c #2F4639",
"d  c #31473D",
"f  c #314A3D",
"g  c #4C422E",
"h  c #5C412D",
"j  c #4D4332",
"k  c #524534",
"l  c #5B4432",
"z  c #554936",
"x  c #554739",
"c  c #564B3A",
"v  c #5B4D3C",
"b  c #57513D",
"n  c #5B513D",
"m  c #63432D",
"M  c #69442D",
"N  c #624733",
"B  c #684731",
"V  c #634C3B",
"C  c #6A4D39",
"Z  c #66503F",
"A  c #6E513C",
"S  c #7E5439",
"D  c #334C43",
"F  c #345245",
"G  c #34544A",
"H  c #38544E",
"J  c #36594D",
"K  c #365652",
"L  c #365B54",
"P  c #375C59",
"I  c #574F40",
"U  c #5B4F41",
"Y  c #5E5240",
"T  c #6D5441",
"R  c #6F5D44",
"E  c #625648",
"W  c #705643",
"Q  c #6F6249",
"!  c #75644C",
"~  c #78694F",
"^  c #7A694F",
"/  c #7A6954",
"(  c #7A6C54",
")  c #7F6D59",
"_  c #7F715A",
"`  c #840000",
"'  c #8B0000",
"]  c #940000",
"[  c #9D0000",
"{  c #821700",
"}  c #851800",
"|  c #911C00",
" . c #A30000",
".. c #AC0000",
"X. c #B30000",
"o. c #BC0000",
"O. c #972900",
"+. c #A32E00",
"@. c #A53200",
"#. c #AA3400",
"$. c #AF3B00",
"%. c #B53B00",
"&. c #C40000",
"*. c #CC0000",
"=. c #D10000",
"-. c #D80000",
";. c #B54100",
":. c #BC4300",
">. c #BF4800",
",. c #BB5E00",
"<. c #BF6400",
"1. c #BD6C00",
"2. c #BE7000",
"3. c #84553B",
"4. c #89583D",
"5. c #C34500",
"6. c #CA4C00",
"7. c #C65100",
"8. c #CC5200",
"9. c #D25300",
"0. c #C46400",
"q. c #C36B00",
"w. c #CB6D00",
"e. c #C37400",
"r. c #855C40",
"t. c #895B41",
"y. c #866243",
"u. c #896245",
"i. c #87664C",
"p. c #806A4F",
"a. c #95694B",
"s. c #926D4E",
"d. c #806D54",
"f. c #8C6B53",
"g. c #806E5A",
"h. c #936E52",
"j. c #817154",
"k. c #84745C",
"l. c #8A755E",
"z. c #85795F",
"x. c #8A795F",
"c. c #947154",
"v. c #95735B",
"b. c #9B7759",
"n. c #A37B58",
"m. c #857964",
"M. c #8A7C64",
"N. c #907D64",
"B. c #9F7D63",
"V. c #008400",
"C. c #CC8200",
"Z. c #CC8B00",
"A. c #94825D",
"S. c #988364",
"D. c #988964",
"F. c #908169",
"G. c #A08964",
"H. c #A0846C",
"J. c #A38C6C",
"K. c #A78F73",
"L. c #A79573",
"P. c #AE9673",
"I. c #AB9C73",
"U. c #AF977B",
"Y. c #AF9C7B",
"T. c #B69E73",
"R. c #B69C7B",
"E. c #AFA27B",
"W. c #B6A37B",
"Q. c #B69E82",
"!. c #AFA582",
"~. c #B6A282",
"^. c #BEA582",
"/. c #BAA886",
"(. c #BEA98A",
"). c #C5B08C",
/* pixels */
"k c c c k k k k c v c c c c c k k c c c c c Y Y c c I Y I c c Y c c c k k k z c Y n k g c c c n c k c v c j k c k k c n Y Y v c ",
"d.( ^ ( d.d.( ! ! ^ ! ! ( k.k.g.k.( ^ _ M.N.k.( ( ( k.m.k.d.k.m.d.k.k.l.k.k.k.x.x.M.x.k.k.k.j.k.k.( ( ) _ ( ^ ) l.k.d.d.j.k.x.M.",
"c c c k k c U Y Y Y Y v v Y Y Y Y Y Y Y Y Y I v c c c v c c k c Y c c j k c v Y c c c I c c c c c c c c c c x k k k c v c v v v ",
"* 1 < < , < < * * , * < < < * < * < < , < , < * < , < < , * = < < < = = < , , = , < , = < , < < = < < < = = , , , = = , = = = = ",
", : w w r t y y y y t e w e : < * < = = < = < * < = < < , * , < < < = = < = , < = < < = - = < < = < < < , = < : 5 7 m M m 7 : * ",
"1 ; w w r t u y y y t e w e ; < , = = * < < < & < = < = < = < < < < = < , , = < = < < * = , < , = , = , < = < : 6 7 M M m 7 ; * ",
", : w w r t u u u y t r e e : < < * = * < < , * , = < = < = < < < < * < < < = < , < < * = = < < , < = = < , < : 6 9 M M m 9 & * ",
"* : w w e t u u u y t r e e ; < < & L L P : , , = = < = , = < < = < * < < < * , < , = * = = 2 < < < = = < < , ; 8 h N N h 8 & * ",
"* : w w r t u u u u y r e e ; < < ; P P P & < = = = = * < * 1 , * < * < < < = = - = * = < * 2 < , < * = 1 * < & 8 l B C N h & , ",
"* ; w w r y u i u u y t r e & = < & P P L & < < < , < = < * < < * < % < < , = = = < = = , * 1 , < < = = < * < & l V A A V l & < ",
"< & w w r y i i u i u t r e : , < & P P P & , = < = < < < * < < * , & < < = * = * < < = < * < , < < = = < * < & v V T T V l & , ",
"< & w w e t u i i i u t r e ; < < & P P P & < & < * , = < * < < * < * < < = * * * < : o $ +.6.>.6.6.#.} + & , & v V T T V l & , ",
", & w w r t u u i i y t r e & , < & P P P ; < * < & , = < = < < = < = < , = * = = = & O } @.6.6.6.8.#.} + & , & v E T T V l & , ",
"= & w w r t u u u u y t r r & , < & P P L & , , < * , * : *...' ' ..&.: = = * , < * & + } #.8.6.8.8.#.} + ; , & V E W T V l : , ",
"= & w w e t u u u u t r e r ; < < & L K L & * v.c.f.: * : &. .' ' ..&.; , < = < < * ; + } #.8.8.8.9.$.} + : < & V Z T T V l : = ",
"< & w w e t u u u u t r e e ; < < : L K L ; : c.h.i.: * : o.[ ` `  .&.; < < < 2 < * : + } #.8.8.8.8.%.} + : < & V T W T V l ; * ",
"< : w w r t u u y y t r e e ; , < : J G J ; : h.h.i.: < : o.[ # #  .*.: < < < < , = ; + } @.7.8.8.9.%.| + : < & v V T W V l ; * ",
"= & w w r t u u u y t r e e ; , < & J G J : : s.h.i.; < : &. .` ` ..*.; < = = < < = ; + } @.7.8.9.9.%.} + : < & v V T A N l ; , ",
"= & w w r y u u u y t r w w & < - & G G G : ; i.h.i.& < : *...' ' ..=.: , * * < = * ; + } #.8.8.9.9.#.} O : , & v Z T V l h & , ",
"< ; e w r y u u y t r r w w : < = & J G G : ; i.h.i.& < : *...' ] X.=.: , * * < = * & + } #.8.8.8.8.@.} O : < & l V C N h h ; , ",
"< ; w w r y u u y t r r w w > < = : J G G & ; i.h.i.& = ; &...' ] ..*.: < * & , = * ; + } #.8.8.6.6.@.} O : < ; k N N l h 8 : , ",
", ; w w r y u u t r r e w w > < = : J G G & ; i.h.i.; * & &...' ' ..*.: < , & , < , : + } #.6.6.6.6.@.} + ; < : l N N h 9 8 : , ",
"* ; w w r y u y t t r e w w : < = ; J G G ; ; i.h.i.; = & &...' ' ..=.; , < * , , < ; O } #.6.6.6.6.@.} + ; < : l N m h 9 6 : < ",
"= : w w r y u y t t r e w w : < = & G G G : ; i.h.f.; , ; &...' ' ..*.; : Z.w.w.e.: ; O } @.6.6.6.6.@.} + ; < : V N m 9 9 6 ; < ",
", : e e t y u u t t r e w w ; < , & G G G : : f.v.f.; , ; &...' ' X.-.; : Z.w.q.1.; & O } @.6.6.>.>.@.} @ & , & V N N m 9 6 ; , ",
"< : e e r y i u y t r e w w : , < & J K L ; : h.v.c.; , ; &...' ' ..=.; : Z.q.<.2.& & O } @.>.>.:.>.@.} + & < & l N B B h 6 & , ",
"< : e e t y i i y t r r w w : , < & L L P ; : v.b.v.: , ; &...' '  .*.: : Z.q.0.2.& & O } @.5.5.:.6.#.} + & < & l N B B h 6 : , ",
"< ; e e t y i u u y r e w w : , = & L P P & : v.b.v.; , ; o. .` '  .&.; ; Z.q.q.e.& ; O } @.6.6.;.6.#.} + & < & 8 N C B h 6 : < ",
", * e e r y u u u t r e w w : < = : P P P & : v.B.v.: , * o. .` '  .&.: : Z.w.w.e.* : O } @.6.5.;.6.#.} + : < & l N C B h 6 : , ",
"Y v c c c c k j j 4 4 k c c c c c c c U Y Y Y E Y Y Y v n Y Y v v U Y Y Y E Y Y x c U v c c c c c c Y Y Y Y Y Y c c c c c c c c ",
"k.k.k.M.M.F.M.k.x.k.k.k.k.k.k._ k.k._ k.k.) k.k.z.k.( ! ! ^ ( d.! ! ^ k.k.( ! R ( x.M.k._ _ z.z.( k.x.z._ j.k.k.z.k.k.k.k.m.M.M.",
"Y.Y.~.(.).(.R.L.H.A.S.J.L.U.R.~.~.Q.Y.Q.~.~.~.(.~.~.^.(.^.P.J.G.G.G.J.J.G.G.J.R.^.^.~.L.P.E.~.!.W.J.A.D.W./.I.S.S.D.K.L.L.L.L.L.",
"S.J.P.R.Q.R.~.~.I.R.W.T.R.W.^.^.P.R.R.R.P.J.H.G.S.G.J.L.P.Y.Q.~.Y.J.A.J.Y.U.D.D.(.~.Y.L.Y.~.).).(.U.J.L.~.(.~.Q.J.J.S.H.L.~.~.U.",
"k.d.( d.( k.k.x.N.M.N.x.x.x._ d.^ ! ! ! d.g.g.d.k.z.M.N.M.z.k.k.z.k.k.k.z.k.k.x.k.k._ _ z.M.z.z.( ( ( ( ! ! ^ k.k.k.^ ! g.k.k.k.",
"Y c k j j k x c k k k k c v v v Y v x c x x z x c Y Y n c c c c Y Y Y Y Y v c Y Y Y Y Y c v U c U c c v Y Y Y Y n Y Y Y Y Y Y c ",
", = , < , < - = 1 < < < < , , < < * < < < 2 < = * , = < = < < * = < < = , < = 2 , , < < < < , , < 1 = = < < , = < = < * < * < * ",
"< = < < < = < = < < < < < = * < < * < < : l N C C l k : , < < , * , < * * < , < < = < < < < = = < : . . e t y y u u y r w w : * ",
"< < , < < < < * < < < , < = * < < = < < : l N C C l l ; = < , = * = 1 * * < , , < = , < , < = = < :   . e t u u u i y r w w : * ",
"< < = < < = < = < < 1 < = , = , < , , < : l N C C N l & * , , * = * < , * < , , < * = < = < = * < : . . e t u u i i u t e w : = ",
"< < = < < = < = < = < < = , < , , < = < : l N C C N l & * < < * < * < < = , < < 2 * : L K L * * < ; . . e t u u u i y t e e : , ",
"= = < , = < < , , < < < = = < , , , = < : 9 l C A N l & , < , < < = = < < = < , = , : P K G : * < : . . e t u y y u y t e r : < ",
"* = < = = = = , = < < < = = < = * , , < : 9 N C A N l ; , < , < < < , = = , < < * = & L G G : , < : . . w r y y y y t r e e : < ",
"% < < = < = * = = < < < < = < = & < < < ; h N A A N l ; , < , , < < < = * < < , * = & P K J : < < : w . w r t y y y r e w e : * ",
"% < < = < , = : O { O.%.:.%.%.+.{ O : < ; 9 N A A N l > = < , , = < < , = , < * * = & L P L ; < = : w . w e t t y t r w w w : * ",
"= = , = = < < ; O $ O.:.5.%.%.+.{ O ; < : 9 N C A N l : = , < , = , , < , , < * , < & L P P ; < * & w w e r t t y t e w w w : , ",
"= = = = * , < ; o $ O.5.5.:.%.O.{ O & < : 9 l B A N l : & &...' ` ..&.: , = < , , < & P P P : < * & w w e r y y y t r w . w ; , ",
"= = < , * , < ; O { +.5.5.:.;.O.{ O ; < : 9 l B A N l : & &. .` `  .&.; = * i.h.s.: : P P P : < = & e w r t y y t t r e . w ; = ",
"= < < < = , < ; O { +.5.5.:.;.O.{ O : < ; h h B C N l : & &. .` ` [ o.& = & u.s.i.: : G K P ; < < ; w w r t y y t t e w . . ; < ",
", * = < , < < & O { +.5.5.5.:.O.$ O : < ; h h m N m 9 & & o.[ ` # [ X.& = : 3.t.t.: : F H P & < < & w w r t y y t t e w . w ; = ",
", * = < < , < ; O { +.:.:.:.:.O.{ O : , : 8 h B m h 7 ; & o.[ ` # [ X.& , : 3.4.3.; : f D F ; < < & w w r t y y t t e w . w ; * ",
"= * = < , , < ; + } @.5.5.5.5.+.{ O : , : 6 h M m 9 6 : & o.] # # ] ..& < : 3.3.3.; & f D F : < , & w e t y y y t t e w . . ; , ",
"= = , < , < < & + } #.6.6.5.5.+.{ O : < : 9 q M M 9 6 : : X.] # # ] ..; , : 3.4.S : & D D F ; , < & e e t y u t t t e w . . ; < ",
"= < < , = < < & O } +.5.5.:.:.O.{ O : < : 9 q M M 7 6 : : X.] # # ] X.: = ; t.s.r.; ; f d D : = < ; e e r y u t t t e e w . ; , ",
"= < < < = < , & O { +.:.:.:.;.O.$ O ; , : 6 q M q 7 6 : : ..] # @ ] X.: = & i.n.s.; ; s X d : < < : e e r y u y t t r e w w & * ",
"= , , , < < , & O { +.:.:.:.;.O.$ o & , ; 6 7 q 0 7 6 : ; ..] # # [ o.: * & s.n.c.; & f X a : < < ; e e t y i y y y r e w w & * ",
", & C.0.,.1.: ; O { O.:.:.:.;.O.$ O ; , & 3 7 q q 9 6 : & X.] # #  .&.; * & c.n.c.& & f a a ; < , & r r t u i u y y r w w w ; = ",
"= & C.0.<.1.: & + } +.:.:.:.:.O.$ O : , & 6 9 M B m 9 : & o.[ ` ' ..*.& , & c.n.s.: : F D F ; < * : e e t u p u u y r e . w : = ",
"< : C.0.0.q.: ; + } +.:.;.;.;.O.{ O : < ; 6 h B B N 9 : & o. .` `  .&.; , & s.b.i.: ; F F G : < * : w w t u p i u y t e . . : = ",
"< : C.0.0.q.; : + } +.;.$.%.%.O.{ O ; < : 8 h B C N h : ; o. .` `  .&.; < ; s.c.u.: ; F G J : < * : w e t u p i u u t e . . : , ",
"= : C.0.0.1.: ; + } +.;.$.$.%.O.{ O & < : 8 h B A N g : : o. .` ` [ o.: < : s.s.y.: & F G J : < , : r r y i V.i u u t e . . ; < ",
"= * C.0.0.1.: * + } +.;.%.%.;.O.$ O & , : 8 N A A N 8 : : o. .` ` [ X.: < : s.s.u.: * G G L : , , : r r y i V.p i i y r w w : < ",
"Y Y Y Y Y Y c c E Y v c z v k x k k k g k z v E k k k k c c c x Y n v c v c c c U v Y U c c v Y z k k c Y Y c k c U Y Y v c c v ",
"z.x.M.N.M.k.k.z.k.d.( d.p.^ p.d.k.( ( ( d.d.j.z.k.k.j.d.^ ! R R k.d.^ ^ ^ k.k.x.p.g.k.l.d.^ ( k.! Q Q ^ k.k.j.! d.k.l.k.d.d.( d.",
"Y c j k b E b j g k v Y c z c v U x c n Y c j k c n Y Y c x k x k c c c v v v v c k 4 4 k c c c c c c c c c c c c v v c c v v c "
};
