/* XPM */
static char *west[] = {
/* columns rows colors chars-per-pixel */
"64 64 127 2 ",
"   c #3B2A04",
".  c #412F03",
"X  c #463105",
"o  c #543D05",
"O  c #583D06",
"+  c #5D4406",
"@  c #674907",
"#  c #684907",
"$  c #6A4709",
"%  c #6A4C09",
"&  c #724E06",
"*  c #724F0A",
"=  c #6F5107",
"-  c #745207",
";  c #7A5407",
":  c #7D5A07",
">  c #7E590A",
",  c #835D06",
"<  c #8A5E07",
"1  c #815708",
"2  c #8C5E09",
"3  c #876205",
"4  c #8F6C03",
"5  c #8B6309",
"6  c #926407",
"7  c #9C6707",
"8  c #956B06",
"9  c #996609",
"0  c #946809",
"q  c #9A6C09",
"w  c #9C7105",
"e  c #9C710A",
"r  c #A16F07",
"t  c #A16F0C",
"y  c #A47305",
"u  c #A97603",
"i  c #A77D03",
"p  c #AD7C04",
"a  c #A37209",
"s  c #AA7209",
"d  c #AC7B09",
"f  c #B07707",
"g  c #B37D06",
"h  c #B97D07",
"j  c #B07709",
"k  c #BB7D0A",
"l  c #BE7C10",
"z  c #C27E06",
"x  c #AD8205",
"c  c #B48205",
"v  c #BD8904",
"b  c #BB8309",
"n  c #C28507",
"m  c #C98C06",
"M  c #C38608",
"N  c #CE830F",
"B  c #C58A08",
"V  c #CB8B09",
"C  c #D58E06",
"Z  c #D28E08",
"A  c #C59104",
"S  c #CD9205",
"D  c #CE9E06",
"F  c #D39305",
"G  c #DA9505",
"H  c #D49B06",
"J  c #D79308",
"K  c #D99409",
"L  c #E78B08",
"P  c #E49705",
"I  c #EF9E03",
"U  c #E19908",
"Y  c #E99E08",
"T  c #CBA107",
"R  c #DEA406",
"E  c #D1A903",
"W  c #D6B704",
"Q  c #DCB505",
"!  c #DBBC05",
"~  c #E3A205",
"^  c #EBA405",
"/  c #E4AA04",
"(  c #EBAA05",
")  c #E6A30D",
"_  c #F3A506",
"`  c #F5AB06",
"'  c #FAAC06",
"]  c #E6B505",
"[  c #EBB305",
"{  c #E5BE04",
"}  c #ECBC05",
"|  c #F2B205",
" . c #F9B305",
".. c #F4BC05",
"X. c #FCBD05",
"o. c #D1C603",
"O. c #D9C703",
"+. c #D5CB04",
"@. c #DFCB06",
"#. c #DDD404",
"$. c #DCD903",
"%. c #E5C303",
"&. c #ECC304",
"*. c #E4CB05",
"=. c #ECCB04",
"-. c #F5C305",
";. c #FCC305",
":. c #F3CB05",
">. c #FDCA04",
",. c #E4D305",
"<. c #EBD605",
"1. c #E4DB05",
"2. c #EDDB05",
"3. c #F3D204",
"4. c #FCD404",
"5. c #F2DB04",
"6. c #FEDC04",
"7. c #E7E202",
"8. c #ECE404",
"9. c #EEEA04",
"0. c #F3E504",
"q. c #FCE305",
"w. c #F2ED03",
"e. c #FDED03",
"r. c #F6F501",
"t. c #FAF702",
"y. c yellow",
/* pixels */
"y.y.y.y.y.y.y.y.y.y.y.y.y.y.S X.6.G ' ^ v v , o s 7 e ;   2 - N l > 0 * j d V Z , v Y 8 G m ~ 6.6.( y.y.>.y.y.y.y.y.y.y.y.y.y.y.",
"y.y.y.y.y.y.y.y.y.y.y.y.y.4.S t.t.G ' ' c m 3 + d k 1 # X ; % $ * > - - j 0 0 2 @ g G , F C G  . .H y.y.e.6.y.y.y.y.y.y.y.y.y.y.",
"y.y.y.y.y.y.y.y.y.y.e.y.t.t.` 0.3.m | ` v J Z e ) j 1 1 - 9 $ 1 a 0 t ; 1 O ; 1 @ d B , G _ ^ ;. ./ t.y.y.y.y.y.y.y.y.y.y.y.y.y.",
"y.y.y.y.y.y.y.y.t.r.r.3.r.r.v 8.=.g z m 8 V M 0 j - & 5 - ; @ - % o @ # 1 ; > a q V M , G [ G <.} :.r.r.0.r.r.y.y.y.y.y.y.y.y.y.",
"y.y.y.y.y.y.r.t.y.t.t.t.r.w.A :.2.m G U m Z V 6 6 ; ; t q 0 s s 0 @ - ; 0 0 5 a s B r , U } S 0.5.-.r.r.r.r.t.t.t.r.t.y.y.y.y.y.",
"y.y.y.y.y.y.r.r.t.r.3.0.w.9.i ~ } c F R v Z b 3 6 , 0 0 1 - q 9 0 1 5 - 1 0 q 6 0 j q , ~ U c [ | G 8.w.w.r.t.r.r.r.y.y.y.y.y.y.",
"y.y.y.y.y.t.t.r.r.r.3.0.9.8.v / ,.G m m 3 v v 3 3 : q 2 - ; < M j b s ; - 5 , 0 8 B g 3 H m 8 ~ 3.c &.9.2.w.r.9.r.t.r.r.y.y.y.y.",
"y.y.y.y.t.r.r.t.w.w.t.w.8.8.S } 5.v m U y n V h , q q a 0 1 q K d 7 L j a q q 0 a K h g G ( S 8.0.w &.8.:.9.w.9.t.r.r.y.y.y.y.y.",
"y.y.y.y.y.r.r.r.r.9.5.8.$.#.m ~ @.m S m 3 p y y q 6 q a 3 = : 3 o . & , 3 , 6 B d h 8 q D U w ! 1., R 8.8.7.8.t.w.w.t.y.t.y.y.y.",
"y.y.y.r.t.t.r.t.9.e.w.%.2.0.F &.2._ v m y c b g K n j h z r b v , 8 V M M f h Z y g g w G ` v :.q.^ 0.e.7.=.t.8.w.r.r.r.r.y.y.y.",
"y.6.y.r.r.r.w.w.8.=.y.&.=.q.^ *.,.^ _ ~ v m v w M g d d h v U Y B m J Z K Z n B g g n v G ^ P <.0.( #.,.[ y.9.2.w.:.3.t.r.e.y.y.",
">.e.y.0.r.w.2.=.7.8.&.8.#.W c R Q g m R v g q y b 3 , 8 3 3 , 3 y q v q v g 3 c 8 y v v c x F ! +.Q o.W w.} { 8.w.2.0.t.5.y.y.y.",
"y.y.t.r.r.9.8.9.8.e.8.O.e.=.c ..| C m G g G F T U C G U G G F G ^ ` ' S U R m U m n U H G G } 3.=.v ( t.+.} 8.1.8.9.w.r.r.t.y.y.",
"y.y.t.r.r.8.&.&.~ 0.1.#.} t.c v  .( R U y ^ ` ~ [ v U } ( _ G F X. ...H G F m m S v ` m m G G ^ 3 , t.%.E q.0.1.0.8.9.r.r.y.4.y.",
"^ m G ....R v y 4 ^ / ! S x ;.x T G F [ F ~ v 8 S 3 p m G ^ G G G F v v S c G v m _ ^ v F [ ~ ^ F >.y p p ^ G A H v w c v ` S S ",
"q.X.X.} 2.[ =.2.,.6.5.+.=.x Q e...| | 3.W 2.:.! 1.P | w.2.>.X.6.6.t.:.=.2.] ,.5.*.2.,.Q  .;.m I e.3 u -.G *.{ R [ ~ ^ :.8.0.t.;.",
"6.X.>.<.0.| P 1.! :.2.W 3.| | ..e.Q x =.+.0.q.1.2.=.[ 2.} X.X.q.;.e.0.8.:.^ ~ [ R { *.G -.u 3 e.I m ;. .Q ,.2.*.5.,.] 2.=.:.t.6.",
"G G ^ G m p 3 S 8 v ~ F [ F G H x ;.x S ! / ( 4 y v R ....G m ^ S S ` v c w v H A G ^ p p y >.F ^ ~ [ F v ^ _ m v G c S v v F G ",
"F R _ ( } U v [ ~ ` ^ y ~ R (  .v c t.} #.1.0.~ &.&.8.r.r.t.y.y.y.4.t.w.r.9.8.0.1.0.q.E %.t., 3 ^ G H m m ` v S m m F G H .. .X.",
"G H G G U G C U T F G g G m F | ..c =.e.O.8.e.8.9.8.9.r.r.t.y.y.y.y.r.r.r.w.9.8.1.8.} +.t.( v =.3.} G G H U n m U m R U S ' ` ^ ",
"3 , 3 3 8 , 3 b y q g h R S c Q R c W #.8.&.8.7.=.2.w.r.0.y.e.>.y.y.y.5.t.0.2.w.8.{ } 0.W o.Q +.! F x c v n y 8 c 3 g v q v q y ",
"Y U v h d d g M w v n v ~ _ ^ ,.*.^ q.=.&.y.=.8.w.w.r.r.r.y.6.y.y.y.e.r.t.3.:.w.2.9.y.] #.#.( 0.<.P ^ G n n g g B n Z K Z J m B ",
"v b y z h j n K g b c y m v _ 2.&.F 0.2.%.w.e.9.r.r.t.r.t.y.y.y.y.y.y.r.r.r.r.9.8.t.=.7.e.0.^ q.:.v ` G w g h y Z h f M M V 8 , ",
"3 : = 3 a q 6 q y y p 3 m S m @.~ m #.$.8.2.9.r.r.r.r.t.y.y.y.y.y.y.y.t.y.t.9.w.t.9.7.8.8.R , 1.! w U D r 8 h d B 3 , 3 , & . o ",
"K q 1 6 a q q , h V n y U m v 5.} S 8.8.w.t.w.w.t.r.r.t.y.y.y.y.y.y.y.y.y.r.r.t.w.w.w.3.8.&.q 0.8.S ( G g h K a 0 q q a j L 7 d ",
"M < ; ; 2 q : 3 3 v v , m m G ,./ v 8.w.0.3.w.r.r.t.t.y.y.y.y.y.y.y.y.y.r.r.t.r.w.r.w.8.9.&.c 3.~ 8 n H 3 g B 8 0 , 5 ; ; s b j ",
"9 q - 1 0 0 , 6 3 b Z h R F g } ^ i w.w.0.3.r.t.t.t.y.y.y.y.y.y.y.y.y.y.y.y.r.r.r.t.r.w.w.8.G ` [ c U ~ , q j 0 6 q 0 1 - 5 1 0 ",
"s s 5 q t ; ; 6 6 V Z m U G m 2.:.A w.r.t.t.r.t.t.t.y.y.y.y.y.y.y.y.y.y.y.t.r.t.t.t.r.r.r.r.-.5.0.S } U , r B d a 5 0 0 ; - @ 0 ",
"- @ ; ; 5 & ; j 0 M m 8 m z g =.8.v r.r.:.r.r.r.y.y.y.y.y.y.y.y.y.y.y.y.y.y.y.y.y.t.r.0.r.r.:.} <.G [ G , M V q a > ; 1 # @ o % ",
"1 $ 9 - 1 1 j ) e Z J v _ | m 3.w.` y.t.y.e.y.y.y.y.y.y.y.y.y.y.y.y.y.y.y.y.y.y.y.y.y.y.y.t./  .;.^ _ G , B d @ 1 ; O 1 ; t 0 a ",
"% % ; X # 1 k d + 3 V c ' ' G y.t.S 4.y.y.y.y.y.y.y.y.y.y.y.y.y.y.y.y.y.y.y.y.y.y.y.6.e.y.y.H  . .G C F , G g @ 2 0 0 j - - > * ",
"N - 2   ; e 7 s o , v v ^ ' G 6.X.S y.y.y.y.y.y.y.y.y.y.y.y.y.y.y.y.y.y.y.y.y.y.y.y.y.>.y.y.( 6.6.~ m G 8 Y v , Z V d j * 0 > l ",
"l > 0 * j d V Z , v Y 8 G m ~ 6.6.( y.y.>.y.y.y.y.y.y.y.y.y.y.y.y.y.y.y.y.y.y.y.y.y.y.y.y.y.S X.6.G ' ^ v v , o s 7 e ;   2 - N ",
"* > - - j 0 0 < @ g G , C C G  . .H y.y.e.6.y.y.y.y.y.y.y.y.y.y.y.y.y.y.y.y.y.y.y.y.y.y.y.4.S t.y.G ' ' c m 3 + d k 1 # X ; % $ ",
"a 0 t ; 1 O ; , @ d B , G _ ^ ;. ./ t.y.y.y.y.y.y.y.y.y.y.y.y.y.y.y.y.y.y.y.y.y.y.y.e.y.t.t.` w.3.m | _ v J Z e ) j 1 1 - 9 % 1 ",
"% o # # 1 ; > a q V M , G [ G <.} :.r.r.0.r.t.y.y.y.y.y.y.y.y.y.y.y.y.y.y.y.y.y.r.r.r.:.r.r.v 8.=.g z m 8 m M 0 j ; & 5 - ; @ - ",
"0 @ - ; 0 0 5 a d B r , U } S 0.2.-.r.r.r.r.t.y.t.r.t.y.y.y.y.y.y.y.y.y.y.y.r.t.y.t.t.t.w.w.A :.2.m G U m Z V 3 6 ; ; t q 5 s s ",
"0 1 5 - 1 0 q 6 0 j q , ~ U c [ [ G 8.w.w.r.t.r.r.r.y.y.y.y.y.y.y.y.y.y.y.y.r.r.t.r.3.0.w.w.i ^ } g F R v Z b 3 6 , 0 0 1 - t 9 ",
"j b s - ; 5 , 0 8 B g 3 H m 8 ~ 3.c &.8.0.w.r.w.r.t.r.r.y.y.y.y.y.y.y.y.y.t.t.r.r.r.3.0.w.8.v / ,.G m m 3 v v 3 3 : q 2 ; ; < M ",
"d 9 L j a q q 0 a K h g G ( S 8.0.q &.8.:.w.w.w.t.r.r.y.y.y.y.y.y.y.y.y.t.r.r.t.w.w.t.w.8.8.S } 5.v m U r M V h , q q a 6 1 q K ",
"o . & < 3 , 3 B d h 8 q D U w ! 1., R 8.8.7.8.r.w.9.r.y.r.y.y.y.y.y.y.y.y.r.r.r.w.9.5.8.$.#.m ~ @.m S m 3 p y y q 6 q a 3 = : 3 ",
", 8 V M M f h Z y g g w G ` v :.q.^ 0.e.7.=.t.8.w.r.r.r.r.y.y.y.y.y.y.r.t.t.r.t.9.e.w.%.2.8.F &.2._ v m y c b j K n j h z y b b ",
"B m J Z K Z n B g g n v G ^ P <.0.( #.,.[ y.8.<.w.:.3.t.r.e.y.y.y.6.y.r.r.r.w.w.8.=.y.&.=.q.^ *.,.^ _ ~ v m v w M g d d h v U Y ",
"y q v q v g 3 c 8 y v v c x F ! +.Q o.W 0.} { 8.w.2.0.t.5.y.y.y.>.e.y.0.r.w.2.=.7.8.&.8.#.W c R Q c S R v g q y b 3 , 8 3 3 , 3 ",
"^ ` ' S U R m U m n U H G G } 3.=.v ( t.+.} 8.1.8.9.w.r.r.t.y.y.y.y.r.r.r.9.8.9.8.e.8.O.e.=.c ..| F m G g G F T U C G U F G F G ",
"X. ...H G F m m S v ` m m G G ^ 3 , t.%.E q.0.1.0.8.9.r.r.y.4.y.y.y.t.r.r.8.&.&.~ 0.1.#.} t.c v  .( R ~ y ^ ` ~ [ v U } ( _ G F ",
"G F v v S c G v m _ ^ v F [ ~ ^ F >.y p p ^ G A H v w c v ` S S ^ m G ....R v y 4 ( / ! S x ;.x H G F [ F ~ v 8 S 3 p m G ^ G G ",
"6.t.:.=.2.] ,.5.*.2.,.Q  .;.m I e.3 u -.G *.{ R [ ~ ^ :.8.0.t.;.q.X.X.} 2.[ =.2.1.q.0.+.=.x Q e...| | 3.W 2.:.! 1.P | 0.<.>.X.6.",
";.e.0.8.:.^ ~ [ R { *.G -.u 3 e.I m ;. .Q ,.2.*.5.,.] 2.=.:.t.6.6.X.>.2.w.| U 1.! -.<.W 3.| | ..e.Q x =.+.0.q.1.2.=.[ 2.} X.X.q.",
"S S ` v c w v H A G ^ p p y >.F ^ ~ | F v ^ _ m v G c S v v F G G G ^ G m p 3 S 8 v ~ F [ F G H x ;.x S ! / ( 4 y v R ....G m ^ ",
"y.4.y.r.r.9.8.0.$.0.q.E %.t., 3 ^ G G m m ` v S m m F G H .. .X.F G _ ( } U v [ ~ ` ^ y U R (  .v c t.} #.1.0.~ &.&.8.r.r.t.y.y.",
"y.y.t.r.r.w.9.8.1.8.} +.t.( v =.3.} G G H U n m U m R U S ' ` ^ G F G F U G C U T F G g G m F | ..c =.e.O.8.e.8.8.8.9.r.r.t.y.y.",
"y.y.y.5.t.0.2.w.8.{ } 0.W o.Q +.! F x c v v y 8 c 3 g n q v r y 3 , 3 3 8 , 3 b y q g v R S c Q R c W #.0.&.8.7.=.2.w.r.0.y.e.>.",
"y.y.e.r.t.3.3.w.2.9.y.[ ,.#.( 0.<.P ^ G v n g g B n Z K Z J m B Y U v h d d g M w v B v ~ _ ^ ,.*.^ q.=.&.y.=.8.w.w.r.r.r.y.6.y.",
"y.y.y.r.r.r.r.w.8.t.=.7.e.0.^ q.:.v ` G w g g y Z h f M M V 8 , v b r z h j n K g b c y m v _ 2.&.F 8.2.%.w.e.9.r.r.t.r.r.y.y.y.",
"y.y.y.t.y.t.w.w.t.8.7.8.8.R , 1.! w U D q 8 h d B 3 , 3 , & . o 3 : = 3 a q 6 q y y p 3 m S m @.~ m #.$.8.5.9.r.r.r.r.t.y.y.y.y.",
"y.y.y.y.y.r.r.t.9.w.9.:.8.&.q 0.8.S ( G g h K a 0 q q a j L 9 d K q 1 6 a q q , h V n y U m v 5.} S 8.8.w.t.w.w.t.r.r.y.y.y.y.y.",
"y.y.y.y.r.r.t.r.9.r.w.2.9.&.c 3.~ 8 m H 3 p B 8 0 , 5 - - s b j M < ; ; 2 q : 3 3 v v 3 m m G ,./ v 8.w.0.3.w.r.r.t.t.y.y.y.y.y.",
"y.y.y.y.y.y.r.r.r.t.r.w.w.8.G ( [ c G ~ , q j 0 6 q 0 1 - 5 1 0 9 q - 1 0 0 , 6 3 b Z v R F g } ~ i w.w.0.3.r.t.r.r.y.y.y.y.y.y.",
"y.y.y.y.y.t.r.t.y.t.r.r.r.r.-.2.0.S } U , r B d a 5 0 0 ; - @ 0 s s 5 q t ; ; 6 6 V Z m U G m 2.:.A w.r.t.t.r.t.t.y.y.y.y.y.y.y.",
"y.y.y.y.y.y.y.y.y.t.r.0.r.r.&.} <.G [ G , M V q a > ; 1 # @ o % - @ ; - 5 & - j 0 M m 8 m z g =.8.v t.r.3.r.r.t.y.y.y.y.y.y.y.y.",
"y.y.y.y.y.y.y.y.y.y.y.y.t.t./  .;.^ _ G , B d @ , ; O 1 ; t 0 a 1 $ 9 - 1 1 j ) e Z J v _ | m 3.w.` y.t.y.e.y.y.y.y.y.y.y.y.y.y.",
"y.y.y.y.y.y.y.y.y.y.6.e.y.y.H  . .G C F , G g @ < 0 0 j - - > * % % ; X # 2 k d + 3 m c ' ' G t.t.S 4.y.y.y.y.y.y.y.y.y.y.y.y.y.",
"y.y.y.y.y.y.y.y.y.y.y.>.y.y.( 6.6.~ m G 8 Y v , Z V d j * 0 > l N - 2   ; e 7 s o , v v ^ ' G 6.X.S y.y.y.y.y.y.y.y.y.y.y.y.y.y."
};
